<svg width="5222" height="1194" viewBox="0 0 5222 1194" fill="none" xmlns="http://www.w3.org/2000/svg">
<path d="M844.611 1076.76C620.807 1093.33 435.25 1100.4 287.939 1097.99C189.732 1096.38 117.963 1071.93 72.6315 1024.65C27.2998 977.365 5.44926 904.161 7.08008 805.036L15.0673 319.526C16.8146 213.32 41.6296 136.834 89.511 90.0668C138.411 42.3043 215.472 19.2857 320.694 21.0108L861.834 29.8828L858.34 242.294L377.326 234.407C317.199 233.421 286.637 263.273 285.638 323.962L277.65 809.472C277.268 832.736 283.473 851.555 296.268 865.929C310.081 879.308 327.51 886.171 348.555 886.516C369.599 886.861 392.647 887.239 417.7 887.649C442.769 887.049 468.841 886.464 495.914 885.896C522.988 885.328 550.062 884.761 577.136 884.193C605.212 883.641 640.82 882.202 683.96 879.874C728.103 877.562 782.777 874.917 847.981 871.939L844.611 1076.76Z" fill="white"/>
<path d="M1417.84 517.051C1354.7 516.016 1289.32 530.121 1221.67 559.364L1212.81 1097.98L949.759 1093.66L962.989 289.538L1195.98 293.358L1209.39 392.224C1296.82 317.776 1387.63 281.324 1481.83 282.868L1549.47 283.977L1545.61 519.146L1417.84 517.051Z" fill="white"/>
<path d="M1930.31 479.924C1890.22 479.267 1869.85 499.168 1869.18 539.627L1867.81 623.074L2123.35 627.264L2124.72 543.817C2125.39 503.358 2105.68 482.8 2065.59 482.142L1930.31 479.924ZM2348.6 1101.42C2154.86 1118.48 1979.32 1125.72 1821.99 1123.14C1753.85 1122.02 1699.58 1100.39 1659.17 1058.25C1618.77 1016.1 1599.13 960.642 1600.26 891.861L1606.25 527.729C1607.5 451.868 1629.52 393.041 1672.31 351.249C1716.11 308.462 1775.6 287.684 1850.75 288.917L2151.39 293.846C2226.55 295.078 2284.81 317.786 2326.19 361.969C2368.58 405.158 2389.15 464.683 2387.9 540.544L2383.28 821.229L1864.69 812.727L1863.69 873.416C1863.44 888.588 1868.24 901.313 1878.1 911.593C1887.95 921.872 1900.4 927.134 1915.43 927.381C2014.64 929.007 2160.07 923.804 2351.72 911.769L2348.6 1101.42Z" fill="white"/>
<path d="M3345.45 814.239L3488.72 330.947L3774.33 335.63L3513.07 1135.69L3234.99 1131.13L3092.66 643.156L2934.35 1126.2L2656.27 1121.64L2421.47 313.45L2707.08 318.132L2834.37 805.86L2977.65 322.568L3218.15 326.511L3345.45 814.239Z" fill="white"/>
<path d="M3797.97 715.425L3801.47 503.014L4417.77 513.118L4414.27 725.529L3797.97 715.425Z" fill="#EA2323"/>
<path d="M4409.61 88.0486L5221.32 101.357L5217.82 313.767L4858.11 1157.74L4557.48 1152.81L4932.22 309.085L4406.11 300.459L4409.61 88.0486Z" fill="#EA2323"/>
<path d="M834.271 1067C614.916 1083.04 432.889 1089.86 288.111 1087.49C191.321 1085.9 122.819 1061.83 80.2107 1017.38C37.5828 972.919 15.9705 902.963 17.5787 805.209L25.5661 319.699C27.2936 214.695 51.839 141.539 96.8477 97.578C142.888 52.6092 216.621 29.8059 320.521 31.5093L851.164 40.2093L848.015 231.623L377.498 223.909C345.791 223.389 319.957 230.979 301.972 248.545C284.005 266.094 275.665 291.851 275.139 323.789L267.152 809.299C266.735 834.615 273.528 856.175 288.425 872.911L288.683 873.201L288.963 873.471C304.881 888.889 324.946 896.63 348.383 897.014C369.31 897.358 392.592 897.739 417.528 898.148L417.74 898.151L417.951 898.146L436.933 897.699C456.103 897.255 475.837 896.819 496.135 896.394L577.356 894.69C605.592 894.135 641.32 892.689 684.51 890.358L684.51 890.359C726.08 888.183 777.008 885.711 837.299 882.941L834.271 1067ZM1418.01 506.552C1353.15 505.489 1286.29 519.989 1217.51 549.727L1211.29 552.415L1211.18 559.192L1202.49 1087.31L960.431 1083.34L973.315 300.209L1186.79 303.708L1198.98 393.635L1201.57 412.675L1216.2 400.218C1302.13 327.047 1390.54 291.873 1481.66 293.367L1538.8 294.304L1535.28 508.475L1418.01 506.552ZM1864.86 802.228L1854.36 802.056L1854.19 812.554L1853.19 873.242C1852.9 890.981 1858.61 906.441 1870.52 918.859C1882.43 931.283 1897.6 937.59 1915.26 937.879C2012.92 939.48 2154.9 934.489 2341.04 922.954L2338.26 1091.78C2148.53 1108.23 1976.51 1115.17 1822.17 1112.64C1756.32 1111.56 1704.89 1090.76 1666.75 1050.98C1628.6 1011.19 1609.67 958.577 1610.76 892.034L1616.75 527.901C1617.97 454.028 1639.33 398.135 1679.64 358.761C1721.01 318.359 1777.55 298.218 1850.58 299.416L2151.22 304.344C2224.26 305.542 2279.54 327.519 2318.52 369.146L2318.61 369.236L2318.69 369.325C2358.64 410.026 2378.62 466.567 2377.4 540.371L2372.96 810.559L1864.86 802.228ZM2133.85 627.436L2135.22 543.989C2135.58 522.166 2130.47 503.777 2118.02 490.788C2105.55 477.78 2087.45 471.999 2065.76 471.644L1930.48 469.426C1908.79 469.07 1890.52 474.254 1877.63 486.845C1864.75 499.419 1859.04 517.631 1858.68 539.455L1857.31 622.902L1857.14 633.401L1867.64 633.573L2123.18 637.763L2133.67 637.935L2133.85 627.436ZM3505.5 1125.06L3242.9 1120.76L3102.74 640.216L3093.24 607.658L3082.68 639.886L2926.79 1115.58L2664.19 1111.27L2435.53 324.181L2698.93 328.5L2824.21 808.512L2833.73 844.973L2844.44 808.845L2985.45 333.197L3210.01 336.879L3335.29 816.892L3344.81 853.353L3355.52 817.224L3496.52 341.576L3759.93 345.895L3505.5 1125.06ZM3808.64 705.098L3811.79 513.684L4407.09 523.444L4403.95 714.858L3808.64 705.098ZM4851.23 1147.13L4573.52 1142.57L4941.82 313.346L4948.26 298.846L4932.39 298.586L4416.78 290.132L4419.93 98.7185L5210.65 111.683L5207.36 311.541L4851.23 1147.13Z" stroke="black" stroke-width="21"/>
</svg>
